STARTFONT 2.1
COMMENT Copyright (C) 2022 by Andrew G. Crowell. Creative Commons Attribution 4.0 International License (CC BY 4.0).
COMMENT om_thick_plain.bdf
FONT -eggboycolor-omelette_thick_plain-medium-r-normal--8-100-72-72-m-90-ISO8859-1
SIZE 8 72 72
FONTBOUNDINGBOX 8 8 0 -2
STARTPROPERTIES 13
FONT_ASCENT 6 
FONT_DESCENT 2
PIXEL_SIZE 8
POINT_SIZE 100
RESOLUTION_X 72
RESOLUTION_Y 72
SPACING "C"
DEFAULT_CHAR 32
AVERAGE_WIDTH 90
CHARSET_REGISTRY "ISO8859"
CHARSET_ENCODING "1"
FOUNDRY "eggboycolor"
COPYRIGHT "Copyright (C) 2022 by Andrew G. Crowell. Creative Commons Attribution 4.0 International License (CC BY 4.0)."
ENDPROPERTIES
CHARS 96
STARTCHAR char32
ENCODING 32
SWIDTH 800 0
DWIDTH 8 0
BBX 8 8 0 -2
BITMAP
00
00
00
00
00
00
00
00
ENDCHAR
STARTCHAR char33
ENCODING 33
SWIDTH 800 0
DWIDTH 8 0
BBX 8 8 0 -2
BITMAP
1C
1C
18
18
00
18
00
00
ENDCHAR
STARTCHAR char34
ENCODING 34
SWIDTH 800 0
DWIDTH 8 0
BBX 8 8 0 -2
BITMAP
6C
6C
28
00
00
00
00
00
ENDCHAR
STARTCHAR char35
ENCODING 35
SWIDTH 800 0
DWIDTH 8 0
BBX 8 8 0 -2
BITMAP
00
28
7C
28
7C
28
00
00
ENDCHAR
STARTCHAR char36
ENCODING 36
SWIDTH 800 0
DWIDTH 8 0
BBX 8 8 0 -2
BITMAP
10
3C
50
38
14
78
10
00
ENDCHAR
STARTCHAR char37
ENCODING 37
SWIDTH 800 0
DWIDTH 8 0
BBX 8 8 0 -2
BITMAP
E2
A4
E8
10
2E
4A
8E
00
ENDCHAR
STARTCHAR char38
ENCODING 38
SWIDTH 800 0
DWIDTH 8 0
BBX 8 8 0 -2
BITMAP
18
28
32
6C
64
3A
00
00
ENDCHAR
STARTCHAR char39
ENCODING 39
SWIDTH 800 0
DWIDTH 8 0
BBX 8 8 0 -2
BITMAP
38
38
18
30
00
00
00
00
ENDCHAR
STARTCHAR char40
ENCODING 40
SWIDTH 800 0
DWIDTH 8 0
BBX 8 8 0 -2
BITMAP
18
30
30
30
30
18
00
00
ENDCHAR
STARTCHAR char41
ENCODING 41
SWIDTH 800 0
DWIDTH 8 0
BBX 8 8 0 -2
BITMAP
30
18
18
18
18
30
00
00
ENDCHAR
STARTCHAR char42
ENCODING 42
SWIDTH 800 0
DWIDTH 8 0
BBX 8 8 0 -2
BITMAP
10
54
38
54
10
00
00
00
ENDCHAR
STARTCHAR char43
ENCODING 43
SWIDTH 800 0
DWIDTH 8 0
BBX 8 8 0 -2
BITMAP
00
10
10
7C
10
10
00
00
ENDCHAR
STARTCHAR char44
ENCODING 44
SWIDTH 800 0
DWIDTH 8 0
BBX 8 8 0 -2
BITMAP
00
00
00
00
30
10
20
00
ENDCHAR
STARTCHAR char45
ENCODING 45
SWIDTH 800 0
DWIDTH 8 0
BBX 8 8 0 -2
BITMAP
00
00
00
7C
00
00
00
00
ENDCHAR
STARTCHAR char46
ENCODING 46
SWIDTH 800 0
DWIDTH 8 0
BBX 8 8 0 -2
BITMAP
00
00
00
00
30
30
00
00
ENDCHAR
STARTCHAR char47
ENCODING 47
SWIDTH 800 0
DWIDTH 8 0
BBX 8 8 0 -2
BITMAP
06
0C
18
30
60
C0
00
00
ENDCHAR
STARTCHAR char48
ENCODING 48
SWIDTH 800 0
DWIDTH 8 0
BBX 8 8 0 -2
BITMAP
3C
66
6E
76
66
3C
00
00
ENDCHAR
STARTCHAR char49
ENCODING 49
SWIDTH 800 0
DWIDTH 8 0
BBX 8 8 0 -2
BITMAP
18
38
18
18
18
3C
00
00
ENDCHAR
STARTCHAR char50
ENCODING 50
SWIDTH 800 0
DWIDTH 8 0
BBX 8 8 0 -2
BITMAP
3C
46
0C
18
30
7E
00
00
ENDCHAR
STARTCHAR char51
ENCODING 51
SWIDTH 800 0
DWIDTH 8 0
BBX 8 8 0 -2
BITMAP
3C
66
0C
06
66
3C
00
00
ENDCHAR
STARTCHAR char52
ENCODING 52
SWIDTH 800 0
DWIDTH 8 0
BBX 8 8 0 -2
BITMAP
2C
2C
6C
7E
0C
0C
00
00
ENDCHAR
STARTCHAR char53
ENCODING 53
SWIDTH 800 0
DWIDTH 8 0
BBX 8 8 0 -2
BITMAP
7E
60
7C
0E
0E
7C
00
00
ENDCHAR
STARTCHAR char54
ENCODING 54
SWIDTH 800 0
DWIDTH 8 0
BBX 8 8 0 -2
BITMAP
1C
30
7C
66
66
3C
00
00
ENDCHAR
STARTCHAR char55
ENCODING 55
SWIDTH 800 0
DWIDTH 8 0
BBX 8 8 0 -2
BITMAP
3E
06
0C
18
18
18
00
00
ENDCHAR
STARTCHAR char56
ENCODING 56
SWIDTH 800 0
DWIDTH 8 0
BBX 8 8 0 -2
BITMAP
3C
66
3C
66
66
3C
00
00
ENDCHAR
STARTCHAR char57
ENCODING 57
SWIDTH 800 0
DWIDTH 8 0
BBX 8 8 0 -2
BITMAP
3C
66
66
3E
0C
38
00
00
ENDCHAR
STARTCHAR char58
ENCODING 58
SWIDTH 800 0
DWIDTH 8 0
BBX 8 8 0 -2
BITMAP
30
30
00
30
30
00
00
00
ENDCHAR
STARTCHAR char59
ENCODING 59
SWIDTH 800 0
DWIDTH 8 0
BBX 8 8 0 -2
BITMAP
30
30
00
30
10
20
00
00
ENDCHAR
STARTCHAR char60
ENCODING 60
SWIDTH 800 0
DWIDTH 8 0
BBX 8 8 0 -2
BITMAP
00
06
1C
70
1C
06
00
00
ENDCHAR
STARTCHAR char61
ENCODING 61
SWIDTH 800 0
DWIDTH 8 0
BBX 8 8 0 -2
BITMAP
00
00
7C
00
7C
00
00
00
ENDCHAR
STARTCHAR char62
ENCODING 62
SWIDTH 800 0
DWIDTH 8 0
BBX 8 8 0 -2
BITMAP
00
60
38
0E
38
60
00
00
ENDCHAR
STARTCHAR char63
ENCODING 63
SWIDTH 800 0
DWIDTH 8 0
BBX 8 8 0 -2
BITMAP
3C
66
0C
18
00
18
00
00
ENDCHAR
STARTCHAR char64
ENCODING 64
SWIDTH 800 0
DWIDTH 8 0
BBX 8 8 0 -2
BITMAP
38
44
54
58
40
3C
00
00
ENDCHAR
STARTCHAR char65
ENCODING 65
SWIDTH 800 0
DWIDTH 8 0
BBX 8 8 0 -2
BITMAP
3C
66
66
7E
66
66
00
00
ENDCHAR
STARTCHAR char66
ENCODING 66
SWIDTH 800 0
DWIDTH 8 0
BBX 8 8 0 -2
BITMAP
7C
66
7C
66
66
7C
00
00
ENDCHAR
STARTCHAR char67
ENCODING 67
SWIDTH 800 0
DWIDTH 8 0
BBX 8 8 0 -2
BITMAP
3C
66
60
60
66
3C
00
00
ENDCHAR
STARTCHAR char68
ENCODING 68
SWIDTH 800 0
DWIDTH 8 0
BBX 8 8 0 -2
BITMAP
78
64
66
66
64
78
00
00
ENDCHAR
STARTCHAR char69
ENCODING 69
SWIDTH 800 0
DWIDTH 8 0
BBX 8 8 0 -2
BITMAP
7E
60
7E
60
60
7E
00
00
ENDCHAR
STARTCHAR char70
ENCODING 70
SWIDTH 800 0
DWIDTH 8 0
BBX 8 8 0 -2
BITMAP
7E
60
7E
60
60
60
00
00
ENDCHAR
STARTCHAR char71
ENCODING 71
SWIDTH 800 0
DWIDTH 8 0
BBX 8 8 0 -2
BITMAP
3C
66
60
6E
66
3C
00
00
ENDCHAR
STARTCHAR char72
ENCODING 72
SWIDTH 800 0
DWIDTH 8 0
BBX 8 8 0 -2
BITMAP
66
66
7E
66
66
66
00
00
ENDCHAR
STARTCHAR char73
ENCODING 73
SWIDTH 800 0
DWIDTH 8 0
BBX 8 8 0 -2
BITMAP
7E
18
18
18
18
7E
00
00
ENDCHAR
STARTCHAR char74
ENCODING 74
SWIDTH 800 0
DWIDTH 8 0
BBX 8 8 0 -2
BITMAP
1E
06
06
06
66
3C
00
00
ENDCHAR
STARTCHAR char75
ENCODING 75
SWIDTH 800 0
DWIDTH 8 0
BBX 8 8 0 -2
BITMAP
66
6C
78
78
6C
66
00
00
ENDCHAR
STARTCHAR char76
ENCODING 76
SWIDTH 800 0
DWIDTH 8 0
BBX 8 8 0 -2
BITMAP
60
60
60
60
60
7E
00
00
ENDCHAR
STARTCHAR char77
ENCODING 77
SWIDTH 800 0
DWIDTH 8 0
BBX 8 8 0 -2
BITMAP
82
C6
EE
FE
D6
C6
00
00
ENDCHAR
STARTCHAR char78
ENCODING 78
SWIDTH 800 0
DWIDTH 8 0
BBX 8 8 0 -2
BITMAP
66
76
7E
6E
66
66
00
00
ENDCHAR
STARTCHAR char79
ENCODING 79
SWIDTH 800 0
DWIDTH 8 0
BBX 8 8 0 -2
BITMAP
3C
66
66
66
66
3C
00
00
ENDCHAR
STARTCHAR char80
ENCODING 80
SWIDTH 800 0
DWIDTH 8 0
BBX 8 8 0 -2
BITMAP
7C
66
66
7C
60
60
00
00
ENDCHAR
STARTCHAR char81
ENCODING 81
SWIDTH 800 0
DWIDTH 8 0
BBX 8 8 0 -2
BITMAP
3C
66
66
66
6C
36
02
00
ENDCHAR
STARTCHAR char82
ENCODING 82
SWIDTH 800 0
DWIDTH 8 0
BBX 8 8 0 -2
BITMAP
7C
66
66
7C
66
66
00
00
ENDCHAR
STARTCHAR char83
ENCODING 83
SWIDTH 800 0
DWIDTH 8 0
BBX 8 8 0 -2
BITMAP
3E
60
3C
06
06
7C
00
00
ENDCHAR
STARTCHAR char84
ENCODING 84
SWIDTH 800 0
DWIDTH 8 0
BBX 8 8 0 -2
BITMAP
7E
18
18
18
18
18
00
00
ENDCHAR
STARTCHAR char85
ENCODING 85
SWIDTH 800 0
DWIDTH 8 0
BBX 8 8 0 -2
BITMAP
66
66
66
66
66
3C
00
00
ENDCHAR
STARTCHAR char86
ENCODING 86
SWIDTH 800 0
DWIDTH 8 0
BBX 8 8 0 -2
BITMAP
66
66
66
66
3C
18
00
00
ENDCHAR
STARTCHAR char87
ENCODING 87
SWIDTH 800 0
DWIDTH 8 0
BBX 8 8 0 -2
BITMAP
C6
C6
D6
FE
EE
C6
00
00
ENDCHAR
STARTCHAR char88
ENCODING 88
SWIDTH 800 0
DWIDTH 8 0
BBX 8 8 0 -2
BITMAP
66
66
3C
7E
66
66
00
00
ENDCHAR
STARTCHAR char89
ENCODING 89
SWIDTH 800 0
DWIDTH 8 0
BBX 8 8 0 -2
BITMAP
66
66
66
3C
18
18
00
00
ENDCHAR
STARTCHAR char90
ENCODING 90
SWIDTH 800 0
DWIDTH 8 0
BBX 8 8 0 -2
BITMAP
7E
0C
18
30
60
7E
00
00
ENDCHAR
STARTCHAR char91
ENCODING 91
SWIDTH 800 0
DWIDTH 8 0
BBX 8 8 0 -2
BITMAP
38
30
30
30
30
38
00
00
ENDCHAR
STARTCHAR char92
ENCODING 92
SWIDTH 800 0
DWIDTH 8 0
BBX 8 8 0 -2
BITMAP
C0
60
30
18
0C
06
00
00
ENDCHAR
STARTCHAR char93
ENCODING 93
SWIDTH 800 0
DWIDTH 8 0
BBX 8 8 0 -2
BITMAP
38
18
18
18
18
38
00
00
ENDCHAR
STARTCHAR char94
ENCODING 94
SWIDTH 800 0
DWIDTH 8 0
BBX 8 8 0 -2
BITMAP
10
38
6C
44
00
00
00
00
ENDCHAR
STARTCHAR char95
ENCODING 95
SWIDTH 800 0
DWIDTH 8 0
BBX 8 8 0 -2
BITMAP
00
00
00
00
00
7E
00
00
ENDCHAR
STARTCHAR char96
ENCODING 96
SWIDTH 800 0
DWIDTH 8 0
BBX 8 8 0 -2
BITMAP
60
70
30
00
00
00
00
00
ENDCHAR
STARTCHAR char97
ENCODING 97
SWIDTH 800 0
DWIDTH 8 0
BBX 8 8 0 -2
BITMAP
00
3C
66
66
6E
36
00
00
ENDCHAR
STARTCHAR char98
ENCODING 98
SWIDTH 800 0
DWIDTH 8 0
BBX 8 8 0 -2
BITMAP
60
60
7C
66
66
7C
00
00
ENDCHAR
STARTCHAR char99
ENCODING 99
SWIDTH 800 0
DWIDTH 8 0
BBX 8 8 0 -2
BITMAP
00
3C
66
60
66
3C
00
00
ENDCHAR
STARTCHAR char100
ENCODING 100
SWIDTH 800 0
DWIDTH 8 0
BBX 8 8 0 -2
BITMAP
06
06
3E
66
66
3E
00
00
ENDCHAR
STARTCHAR char101
ENCODING 101
SWIDTH 800 0
DWIDTH 8 0
BBX 8 8 0 -2
BITMAP
00
3C
66
7E
60
3E
00
00
ENDCHAR
STARTCHAR char102
ENCODING 102
SWIDTH 800 0
DWIDTH 8 0
BBX 8 8 0 -2
BITMAP
0E
18
3E
18
18
18
00
00
ENDCHAR
STARTCHAR char103
ENCODING 103
SWIDTH 800 0
DWIDTH 8 0
BBX 8 8 0 -2
BITMAP
00
3E
66
66
3E
06
7C
00
ENDCHAR
STARTCHAR char104
ENCODING 104
SWIDTH 800 0
DWIDTH 8 0
BBX 8 8 0 -2
BITMAP
60
60
7C
66
66
66
00
00
ENDCHAR
STARTCHAR char105
ENCODING 105
SWIDTH 800 0
DWIDTH 8 0
BBX 8 8 0 -2
BITMAP
18
00
18
18
18
18
00
00
ENDCHAR
STARTCHAR char106
ENCODING 106
SWIDTH 800 0
DWIDTH 8 0
BBX 8 8 0 -2
BITMAP
06
00
06
06
06
36
1C
00
ENDCHAR
STARTCHAR char107
ENCODING 107
SWIDTH 800 0
DWIDTH 8 0
BBX 8 8 0 -2
BITMAP
60
60
6C
78
6C
66
00
00
ENDCHAR
STARTCHAR char108
ENCODING 108
SWIDTH 800 0
DWIDTH 8 0
BBX 8 8 0 -2
BITMAP
70
30
30
30
30
38
00
00
ENDCHAR
STARTCHAR char109
ENCODING 109
SWIDTH 800 0
DWIDTH 8 0
BBX 8 8 0 -2
BITMAP
00
EC
FE
D6
D6
C6
00
00
ENDCHAR
STARTCHAR char110
ENCODING 110
SWIDTH 800 0
DWIDTH 8 0
BBX 8 8 0 -2
BITMAP
00
7C
66
66
66
66
00
00
ENDCHAR
STARTCHAR char111
ENCODING 111
SWIDTH 800 0
DWIDTH 8 0
BBX 8 8 0 -2
BITMAP
00
3C
66
66
66
3C
00
00
ENDCHAR
STARTCHAR char112
ENCODING 112
SWIDTH 800 0
DWIDTH 8 0
BBX 8 8 0 -2
BITMAP
00
7C
66
66
7C
60
60
00
ENDCHAR
STARTCHAR char113
ENCODING 113
SWIDTH 800 0
DWIDTH 8 0
BBX 8 8 0 -2
BITMAP
00
3E
66
66
3E
06
06
00
ENDCHAR
STARTCHAR char114
ENCODING 114
SWIDTH 800 0
DWIDTH 8 0
BBX 8 8 0 -2
BITMAP
00
6C
72
60
60
60
00
00
ENDCHAR
STARTCHAR char115
ENCODING 115
SWIDTH 800 0
DWIDTH 8 0
BBX 8 8 0 -2
BITMAP
00
3E
60
3C
06
7C
00
00
ENDCHAR
STARTCHAR char116
ENCODING 116
SWIDTH 800 0
DWIDTH 8 0
BBX 8 8 0 -2
BITMAP
18
18
7E
18
18
0E
00
00
ENDCHAR
STARTCHAR char117
ENCODING 117
SWIDTH 800 0
DWIDTH 8 0
BBX 8 8 0 -2
BITMAP
00
66
66
66
66
3C
00
00
ENDCHAR
STARTCHAR char118
ENCODING 118
SWIDTH 800 0
DWIDTH 8 0
BBX 8 8 0 -2
BITMAP
00
66
66
66
3C
18
00
00
ENDCHAR
STARTCHAR char119
ENCODING 119
SWIDTH 800 0
DWIDTH 8 0
BBX 8 8 0 -2
BITMAP
00
C6
D6
D6
FE
6C
00
00
ENDCHAR
STARTCHAR char120
ENCODING 120
SWIDTH 800 0
DWIDTH 8 0
BBX 8 8 0 -2
BITMAP
00
66
3C
18
3C
66
00
00
ENDCHAR
STARTCHAR char121
ENCODING 121
SWIDTH 800 0
DWIDTH 8 0
BBX 8 8 0 -2
BITMAP
00
66
66
66
3E
04
78
00
ENDCHAR
STARTCHAR char122
ENCODING 122
SWIDTH 800 0
DWIDTH 8 0
BBX 8 8 0 -2
BITMAP
00
7E
0C
18
30
7E
00
00
ENDCHAR
STARTCHAR char123
ENCODING 123
SWIDTH 800 0
DWIDTH 8 0
BBX 8 8 0 -2
BITMAP
18
10
60
20
10
18
00
00
ENDCHAR
STARTCHAR char124
ENCODING 124
SWIDTH 800 0
DWIDTH 8 0
BBX 8 8 0 -2
BITMAP
30
30
30
30
30
30
00
00
ENDCHAR
STARTCHAR char125
ENCODING 125
SWIDTH 800 0
DWIDTH 8 0
BBX 8 8 0 -2
BITMAP
30
10
0C
08
10
30
00
00
ENDCHAR
STARTCHAR char126
ENCODING 126
SWIDTH 800 0
DWIDTH 8 0
BBX 8 8 0 -2
BITMAP
00
32
7E
4C
00
00
00
00
ENDCHAR
STARTCHAR char127
ENCODING 127
SWIDTH 800 0
DWIDTH 8 0
BBX 8 8 0 -2
BITMAP
00
00
00
00
00
54
00
00
ENDCHAR
ENDFONT
